<svg width="32" height="33" viewBox="0 0 32 33" fill="none" xmlns="http://www.w3.org/2000/svg">
<rect y="0.5" width="32" height="32" rx="4" fill="#2E2E2E"/>
<path d="M16 21.75V8.25L23.5 10.5V15L16 12.75M12.25 25.5C14.321 25.5 16 23.821 16 21.75C16 19.679 14.321 18 12.25 18C10.1789 18 8.5 19.679 8.5 21.75C8.5 23.821 10.1789 25.5 12.25 25.5Z" stroke="#FF8A2E" stroke-width="2" stroke-linecap="round" stroke-linejoin="round"/>
<path d="M16 21.75V8.25L23.5 10.5V15L16 12.75M12.25 25.5C14.321 25.5 16 23.821 16 21.75C16 19.679 14.321 18 12.25 18C10.1789 18 8.5 19.679 8.5 21.75C8.5 23.821 10.1789 25.5 12.25 25.5Z" stroke="#FF8A2E" stroke-width="2" stroke-linecap="round" stroke-linejoin="round"/>
</svg>
