<svg width="32" height="33" viewBox="0 0 32 33" fill="none" xmlns="http://www.w3.org/2000/svg">
<rect y="0.5" width="32" height="32" rx="4" fill="#FF8A2E"/>
<path d="M18.25 23.999V19.499C18.25 19.3001 18.1709 19.1093 18.0303 18.9686C17.8897 18.828 17.6989 18.749 17.5 18.749H14.5C14.3011 18.749 14.1103 18.828 13.9697 18.9686C13.8291 19.1093 13.75 19.3001 13.75 19.499V23.999C13.75 24.1979 13.6709 24.3887 13.5303 24.5293C13.3897 24.67 13.1989 24.749 13 24.749H8.5C8.30108 24.749 8.11032 24.67 7.96967 24.5293C7.82902 24.3887 7.75 24.1979 7.75 23.999V15.3271C7.75168 15.2233 7.77411 15.1209 7.81597 15.0259C7.85783 14.9309 7.91828 14.8453 7.99375 14.774L15.4937 7.95835C15.632 7.83187 15.8126 7.76172 16 7.76172C16.1874 7.76172 16.368 7.83187 16.5062 7.95835L24.0062 14.774C24.0817 14.8453 24.1422 14.9309 24.184 15.0259C24.2259 15.1209 24.2484 15.2233 24.25 15.3271V23.999C24.25 24.1979 24.1709 24.3887 24.0303 24.5293C23.8897 24.67 23.6989 24.749 23.5 24.749H19C18.8011 24.749 18.6103 24.67 18.4697 24.5293C18.3291 24.3887 18.25 24.1979 18.25 23.999Z" fill="#0A0A0A" stroke="#0A0A0A" stroke-width="2" stroke-linecap="round" stroke-linejoin="round"/>
</svg>
