<svg width="23" height="23" viewBox="0 0 23 23" fill="none" xmlns="http://www.w3.org/2000/svg">
<path d="M18.75 2V6.5M21 4.25H16.5M7.5 18.125V5L12.0187 3.875M13.875 7.90625L7.5 9.5M19.5 10.9344V15.125M16.875 17.75C18.3247 17.75 19.5 16.5747 19.5 15.125C19.5 13.6753 18.3247 12.5 16.875 12.5C15.4253 12.5 14.25 13.6753 14.25 15.125C14.25 16.5747 15.4253 17.75 16.875 17.75ZM4.875 20.75C6.32475 20.75 7.5 19.5747 7.5 18.125C7.5 16.6753 6.32475 15.5 4.875 15.5C3.42525 15.5 2.25 16.6753 2.25 18.125C2.25 19.5747 3.42525 20.75 4.875 20.75Z" stroke="#FF8A2E" stroke-width="3" stroke-linecap="round" stroke-linejoin="round"/>
</svg>
