<svg width="20" height="23" viewBox="0 0 20 23" fill="none" xmlns="http://www.w3.org/2000/svg">
<path d="M7.00037 17.0001V17.7501C7.00037 18.5458 7.31642 19.3088 7.87907 19.8714C8.44164 20.434 9.20469 20.7501 10.0004 20.7501C10.796 20.7501 11.5591 20.434 12.1217 19.8714C12.6843 19.3088 13.0004 18.5458 13.0004 17.7501V17.0001M3.26904 8.75009C3.26779 7.86096 3.44246 6.98031 3.783 6.159C4.12354 5.33766 4.62321 4.5918 5.25323 3.96438C5.88324 3.33697 6.63122 2.8404 7.45397 2.50329C8.27672 2.16617 9.15804 1.99515 10.0472 2.0001C13.7597 2.02823 16.7315 5.1126 16.7315 8.83446V9.50009C16.7315 12.8563 17.4347 14.8063 18.0534 15.8751C18.1191 15.9889 18.1538 16.118 18.1539 16.2494C18.154 16.3809 18.1196 16.51 18.0541 16.624C17.9885 16.7379 17.8943 16.8326 17.7806 16.8986C17.6669 16.9646 17.5379 16.9996 17.4065 17.0001H2.59404C2.46261 16.9996 2.33361 16.9646 2.21996 16.8986C2.10632 16.8326 2.01201 16.7379 1.9465 16.624C1.88099 16.51 1.84656 16.3809 1.84668 16.2494C1.84679 16.118 1.88145 15.9889 1.94717 15.8751C2.56592 14.8063 3.26904 12.8563 3.26904 9.50009V8.75009Z" stroke="#FF8A2E" stroke-width="3" stroke-linecap="round" stroke-linejoin="round"/>
</svg>
