<svg width="32" height="33" viewBox="0 0 32 33" fill="none" xmlns="http://www.w3.org/2000/svg">
<rect y="0.5" width="32" height="32" rx="4" fill="#2E2E2E"/>
<path d="M24.5219 11.158C25.0138 12.3067 25.1343 13.5805 24.8663 14.8011C24.5983 16.0216 23.9554 17.1278 23.0274 17.9648C22.0995 18.8018 20.9331 19.3276 19.6915 19.4688C18.4499 19.6098 17.1952 19.3592 16.1031 18.7518L10.8438 24.8455C10.4211 25.2682 9.84777 25.5057 9.25 25.5057C8.65223 25.5057 8.07894 25.2682 7.65625 24.8455C7.23356 24.4228 6.99609 23.8495 6.99609 23.2518C6.99609 22.654 7.23356 22.0807 7.65625 21.658L13.75 16.3986C13.1426 15.3066 12.8919 14.0519 13.033 12.8103C13.1741 11.5686 13.7 10.4022 14.5369 9.47428C15.3739 8.54637 16.4801 7.90342 17.7007 7.63545C18.9213 7.36748 20.1951 7.48792 21.3438 7.97988L17.4063 11.908L17.9406 14.5611L20.5938 15.0955L24.5219 11.158Z" stroke="#FF8A2E" stroke-width="2" stroke-linecap="round" stroke-linejoin="round"/>
</svg>
